# xmcd
#
# Track frame offsets:
#	150
#	14297
#	31459
#	47572
#	63915
#	79081
#	93846
#	108238
#	125866
#	141194
#	158552
#	173008
#
# Disc length: 2513 seconds
#
# Revision: 0
# Processed by: cddbd v1.5.2PL0 Copyright (c) Steve Scherf et al.
# Submitted via: dBpowerAMP V4.0
#
DISCID=9109cf0c
DTITLE=Varius - Rot sind die Rosen CD1
DYEAR=1900
DGENRE=Country
TTITLE0=Alpentrio Tirol - Rot sind die Rosen
TTITLE1=Kastelruther Spatzen - Weil Du meine groﬂe Liebe bist
TTITLE2=Semino Rosi - Alle Rosen dieser Welt
TTITLE3=Stefanie Hertel and Stefan Mross - Und Morgen geht's weiter
TTITLE4=Nockalm Quintett - Vom Winde verweht
TTITLE5=Marianne and Michael - Wenn die Seele schweigt
TTITLE6=Oswald Sattler - Eine Tr‰ne wie ein Diamant
TTITLE7=Monika Martin - Immer nur Sehnsucht
TTITLE8=Marc Pircher - Und dann sehn' i mi nach dir
TTITLE9=Klostertaler - Fang mi auf
TTITLE10=Die Edlseer - Lass dich umarmen - mein Schatz
TTITLE11=Florian Silbereisen - Das kann nur Liebe sein
EXTD=
EXTT0=
EXTT1=
EXTT2=
EXTT3=
EXTT4=
EXTT5=
EXTT6=
EXTT7=
EXTT8=
EXTT9=
EXTT10=
EXTT11=
PLAYORDER=
